<svg xmlns="http://www.w3.org/2000/svg" width="64" height="64" viewBox="0 0 64 64" fill="none">
  <defs>
    <linearGradient id="g" x1="12" y1="8" x2="52" y2="56" gradientUnits="userSpaceOnUse">
      <stop stop-color="#4FA3FF"/>
      <stop offset="1" stop-color="#2F7DFF"/>
    </linearGradient>
  </defs>
  <path d="M14 50c10-3 26-3 36 0" stroke="url(#g)" stroke-width="3.5" stroke-linecap="round"/>
  <path d="M20 45c5-2 19-2 24 0" stroke="url(#g)" stroke-width="3" stroke-linecap="round" opacity=".8"/>
  <path d="M32 46V22" stroke="url(#g)" stroke-width="3.5" stroke-linecap="round"/>
  <path d="M32 22c6 0 10 4 12 8-5-2-10-1-12 0 3-5 3-8 0-8z" fill="url(#g)"/>
  <path d="M32 22c-6 0-10 4-12 8 5-2 10-1 12 0-3-5-3-8 0-8z" fill="url(#g)" opacity=".9"/>
  <path d="M32 30c7 0 12 4 14 8-6-2-12-1-14 0 3-5 3-8 0-8z" fill="url(#g)" opacity=".8"/>
  <path d="M32 30c-7 0-12 4-14 8 6-2 12-1 14 0-3-5-3-8 0-8z" fill="url(#g)" opacity=".75"/>
</svg>
